<svg width="980" height="980" viewBox="0 0 980 980" fill="none" xmlns="http://www.w3.org/2000/svg">
<g clip-path="url(#clip0_2042_2)">
<rect x="330" y="660" width="100" height="100" rx="24" fill="#F7F5F3"/>
<rect x="440" y="660" width="100" height="100" rx="24" fill="#F7F5F3"/>
<rect x="550" y="660" width="100" height="100" rx="24" fill="#F7F5F3"/>
<rect x="330" y="770" width="100" height="100" rx="24" fill="#F7F5F3"/>
<rect x="440" y="770" width="100" height="100" rx="24" fill="#F7F5F3"/>
<rect x="550" y="770" width="100" height="100" rx="24" fill="#F7F5F3"/>
<rect x="330" y="880" width="100" height="100" rx="24" fill="#F7F5F3"/>
<rect x="440" y="880" width="100" height="100" rx="24" fill="#F7F5F3"/>
<rect x="550" y="880" width="100" height="100" rx="24" fill="#F7F5F3"/>
<rect x="660" y="330" width="100" height="100" rx="24" fill="#F7F5F3"/>
<rect x="770" y="330" width="100" height="100" rx="24" fill="#F7F5F3"/>
<rect x="880" y="330" width="100" height="100" rx="24" fill="#F7F5F3"/>
<rect x="660" y="440" width="100" height="100" rx="24" fill="#F7F5F3"/>
<rect x="770" y="440" width="100" height="100" rx="24" fill="#F7F5F3"/>
<rect x="880" y="440" width="100" height="100" rx="24" fill="#F7F5F3"/>
<rect x="660" y="550" width="100" height="100" rx="24" fill="#F7F5F3"/>
<rect x="770" y="550" width="100" height="100" rx="24" fill="#F7F5F3"/>
<rect x="880" y="550" width="100" height="100" rx="24" fill="#F7F5F3"/>
<rect y="330" width="100" height="100" rx="24" fill="#F7F5F3"/>
<rect x="110" y="330" width="100" height="100" rx="24" fill="#F7F5F3"/>
<rect x="220" y="330" width="100" height="100" rx="24" fill="#F7F5F3"/>
<rect y="440" width="100" height="100" rx="24" fill="#F7F5F3"/>
<rect x="110" y="440" width="100" height="100" rx="24" fill="#F7F5F3"/>
<rect x="220" y="440" width="100" height="100" rx="24" fill="#F7F5F3"/>
<rect y="550" width="100" height="100" rx="24" fill="#F7F5F3"/>
<rect x="110" y="550" width="100" height="100" rx="24" fill="#F7F5F3"/>
<rect x="220" y="550" width="100" height="100" rx="24" fill="#F7F5F3"/>
<rect x="330" y="110" width="100" height="100" rx="24" fill="#F7F5F3"/>
<rect x="440" y="110" width="100" height="100" rx="24" fill="#F7F5F3"/>
<rect x="550" y="110" width="100" height="100" rx="24" fill="#F7F5F3"/>
<rect x="330" y="220" width="100" height="100" rx="24" fill="#F7F5F3"/>
<rect x="440" y="220" width="100" height="100" rx="24" fill="#F7F5F3"/>
<rect x="550" y="220" width="100" height="100" rx="24" fill="#F7F5F3"/>
<rect x="330" width="100" height="100" rx="24" fill="#F7F5F3"/>
<rect x="440" width="100" height="100" rx="24" fill="#F7F5F3"/>
<rect x="550" width="100" height="100" rx="24" fill="#F7F5F3"/>
<rect y="660" width="100" height="100" rx="24" fill="#122A5E"/>
<rect x="110" y="660" width="100" height="100" rx="24" fill="#122A5E"/>
<rect x="220" y="660" width="100" height="100" rx="24" fill="#122A5E"/>
<rect y="770" width="100" height="100" rx="24" fill="#122A5E"/>
<rect x="110" y="770" width="100" height="100" rx="24" fill="#122A5E"/>
<rect x="220" y="770" width="100" height="100" rx="24" fill="#122A5E"/>
<rect y="880" width="100" height="100" rx="24" fill="#122A5E"/>
<rect x="110" y="880" width="100" height="100" rx="24" fill="#122A5E"/>
<rect x="220" y="880" width="100" height="100" rx="24" fill="#122A5E"/>
<rect x="660" y="660" width="100" height="100" rx="24" fill="#122A5E"/>
<rect x="770" y="660" width="100" height="100" rx="24" fill="#122A5E"/>
<rect x="880" y="660" width="100" height="100" rx="24" fill="#122A5E"/>
<rect x="660" y="770" width="100" height="100" rx="24" fill="#122A5E"/>
<rect x="770" y="770" width="100" height="100" rx="24" fill="#122A5E"/>
<rect x="880" y="770" width="100" height="100" rx="24" fill="#122A5E"/>
<rect x="660" y="880" width="100" height="100" rx="24" fill="#122A5E"/>
<rect x="770" y="880" width="100" height="100" rx="24" fill="#122A5E"/>
<rect x="880" y="880" width="100" height="100" rx="24" fill="#122A5E"/>
<rect x="330" y="330" width="100" height="100" rx="24" fill="#122A5E"/>
<rect x="440" y="330" width="100" height="100" rx="24" fill="#122A5E"/>
<rect x="550" y="330" width="100" height="100" rx="24" fill="#122A5E"/>
<rect x="330" y="440" width="100" height="100" rx="24" fill="#122A5E"/>
<rect x="440" y="440" width="100" height="100" rx="24" fill="#122A5E"/>
<rect x="550" y="440" width="100" height="100" rx="24" fill="#122A5E"/>
<rect x="330" y="550" width="100" height="100" rx="24" fill="#122A5E"/>
<rect x="440" y="550" width="100" height="100" rx="24" fill="#122A5E"/>
<rect x="550" y="550" width="100" height="100" rx="24" fill="#122A5E"/>
<rect x="660" y="110" width="100" height="100" rx="24" fill="#122A5E"/>
<rect x="770" y="110" width="100" height="100" rx="24" fill="#122A5E"/>
<rect x="880" y="110" width="100" height="100" rx="24" fill="#122A5E"/>
<rect x="660" y="220" width="100" height="100" rx="24" fill="#122A5E"/>
<rect x="770" y="220" width="100" height="100" rx="24" fill="#122A5E"/>
<rect x="880" y="220" width="100" height="100" rx="24" fill="#122A5E"/>
<rect x="660" width="100" height="100" rx="24" fill="#122A5E"/>
<rect x="770" width="100" height="100" rx="24" fill="#122A5E"/>
<rect x="880" width="100" height="100" rx="24" fill="#122A5E"/>
<rect y="110" width="100" height="100" rx="24" fill="#122A5E"/>
<rect x="110" y="110" width="100" height="100" rx="24" fill="#122A5E"/>
<rect x="220" y="110" width="100" height="100" rx="24" fill="#122A5E"/>
<rect y="220" width="100" height="100" rx="24" fill="#122A5E"/>
<rect x="110" y="220" width="100" height="100" rx="24" fill="#122A5E"/>
<rect x="220" y="220" width="100" height="100" rx="24" fill="#122A5E"/>
<rect width="100" height="100" rx="24" fill="#122A5E"/>
<rect x="110" width="100" height="100" rx="24" fill="#122A5E"/>
<rect x="220" width="100" height="100" rx="24" fill="#122A5E"/>
</g>
<defs>
<clipPath id="clip0_2042_2">
<rect width="980" height="980" fill="white"/>
</clipPath>
</defs>
</svg>
